<svg width="512" height="512" viewBox="0 0 512 512" fill="none" xmlns="http://www.w3.org/2000/svg">
<path fill-rule="evenodd" clip-rule="evenodd" d="M480 256C480 296.87 471.62 335.503 456.716 369.778H270C304.477 316.134 340 251.174 340 184.889C340 99.5891 283.139 27.781 205.821 6.44824C221.953 2.22879 238.749 0 256 0C379.712 0 480 114.615 480 256ZM284 184.889C284 114.196 227.588 56.8889 158 56.8889C64.8909 56.8889 32 177.879 32 256C32 397.385 132.288 512 256 512C322.341 512 381.947 479.04 422.963 426.667H158C162.926 420.287 168.083 413.712 173.382 406.958C222.619 344.195 284 265.952 284 184.889Z" fill="#7859CF"/>
</svg>
