<svg width="512" height="512" fill="none" xmlns="http://www.w3.org/2000/svg"><path fill-rule="evenodd" clip-rule="evenodd" d="M480 256c0 40.87-8.38 79.503-23.284 113.778H270c34.477-53.644 70-118.604 70-184.889 0-85.3-56.861-157.108-134.179-178.44A197.941 197.941 0 0 1 256 0c123.712 0 224 114.615 224 256Zm-196-71.111c0-70.693-56.412-128-126-128-93.11 0-126 120.99-126 199.111 0 141.385 100.288 256 224 256 66.341 0 125.947-32.96 166.963-85.333H158c4.926-6.38 10.083-12.955 15.382-19.709C222.619 344.195 284 265.952 284 184.889Z" fill="#7859CF"/></svg>